<?xml version="1.0" standalone="yes"?>

<svg version="1.1" viewBox="0.0 0.0 960.0 720.0" fill="none" stroke="none" stroke-linecap="square" stroke-miterlimit="10" xmlns="http://www.w3.org/2000/svg" xmlns:xlink="http://www.w3.org/1999/xlink"><clipPath id="p.0"><path d="m0 0l960.0 0l0 720.0l-960.0 0l0 -720.0z" clip-rule="nonzero"></path></clipPath><g clip-path="url(#p.0)"><path fill="#000000" fill-opacity="0.0" d="m0 0l960.0 0l0 720.0l-960.0 0z" fill-rule="nonzero"></path><path fill="#674ea7" d="m187.4147 229.50131l152.47244 0l0 141.35434l-152.47244 0z" fill-rule="nonzero"></path><path stroke="#8e7cc3" stroke-width="1.0" stroke-linejoin="round" stroke-linecap="butt" d="m187.4147 229.50131l152.47244 0l0 141.35434l-152.47244 0z" fill-rule="nonzero"></path><path fill="#f3f3f3" d="m208.80533 285.09848l-2.265625 0l-6.546875 -12.359375l0 12.359375l-1.71875 0l0 -13.8125l2.84375 0l5.96875 11.28125l0 -11.28125l1.71875 0l0 13.8125zm11.9557495 -5.0l-7.640625 0q0 0.953125 0.28125 1.671875q0.296875 0.703125 0.796875 1.15625q0.484375 0.453125 1.140625 0.671875q0.671875 0.21875 1.46875 0.21875q1.0625 0 2.125 -0.421875q1.078125 -0.421875 1.53125 -0.828125l0.09375 0l0 1.90625q-0.875 0.359375 -1.796875 0.609375q-0.921875 0.25 -1.9375 0.25q-2.578125 0 -4.03125 -1.390625q-1.4375 -1.390625 -1.4375 -3.96875q0 -2.53125 1.375 -4.03125q1.390625 -1.5 3.65625 -1.5q2.109375 0 3.234375 1.234375q1.140625 1.21875 1.140625 3.46875l0 0.953125zm-1.703125 -1.34375q0 -1.359375 -0.6875 -2.109375q-0.6875 -0.765625 -2.078125 -0.765625q-1.390625 0 -2.234375 0.828125q-0.828125 0.828125 -0.9375 2.046875l5.9375 0zm12.816711 1.34375l-7.640625 0q0 0.953125 0.28125 1.671875q0.296875 0.703125 0.796875 1.15625q0.484375 0.453125 1.140625 0.671875q0.671875 0.21875 1.46875 0.21875q1.0625 0 2.125 -0.421875q1.078125 -0.421875 1.53125 -0.828125l0.09375 0l0 1.90625q-0.875 0.359375 -1.796875 0.609375q-0.921875 0.25 -1.9375 0.25q-2.578125 0 -4.03125 -1.390625q-1.4375 -1.390625 -1.4375 -3.96875q0 -2.53125 1.375 -4.03125q1.390625 -1.5 3.65625 -1.5q2.109375 0 3.234375 1.234375q1.140625 1.21875 1.140625 3.46875l0 0.953125zm-1.703125 -1.34375q0 -1.359375 -0.6875 -2.109375q-0.6875 -0.765625 -2.078125 -0.765625q-1.390625 0 -2.234375 0.828125q-0.828125 0.828125 -0.9375 2.046875l5.9375 0zm12.551086 6.34375l-1.75 0l0 -1.078125q-0.75 0.640625 -1.5625 1.0q-0.8125 0.359375 -1.78125 0.359375q-1.84375 0 -2.9375 -1.421875q-1.09375 -1.421875 -1.09375 -3.96875q0 -1.3125 0.375 -2.34375q0.375 -1.03125 1.015625 -1.75q0.640625 -0.703125 1.46875 -1.078125q0.84375 -0.375 1.75 -0.375q0.8125 0 1.4375 0.171875q0.640625 0.171875 1.328125 0.53125l0 -4.484375l1.75 0l0 14.4375zm-1.75 -2.546875l0 -5.953125q-0.703125 -0.3125 -1.265625 -0.4375q-0.546875 -0.125 -1.203125 -0.125q-1.46875 0 -2.296875 1.03125q-0.8125 1.015625 -0.8125 2.890625q0 1.84375 0.625 2.8125q0.640625 0.953125 2.03125 0.953125q0.75 0 1.5 -0.328125q0.765625 -0.328125 1.421875 -0.84375zm16.901306 2.453125q-0.484375 0.125 -1.0625 0.203125q-0.578125 0.09375 -1.046875 0.09375q-1.578125 0 -2.40625 -0.84375q-0.828125 -0.859375 -0.828125 -2.75l0 -5.5l-1.171875 0l0 -1.46875l1.171875 0l0 -2.984375l1.75 0l0 2.984375l3.59375 0l0 1.46875l-3.59375 0l0 4.71875q0 0.8125 0.03125 1.28125q0.046875 0.453125 0.265625 0.84375q0.203125 0.375 0.5625 0.546875q0.359375 0.171875 1.09375 0.171875q0.421875 0 0.875 -0.125q0.46875 -0.125 0.671875 -0.203125l0.09375 0l0 1.5625zm10.804474 -5.078125q0 2.53125 -1.296875 4.0q-1.296875 1.453125 -3.484375 1.453125q-2.1875 0 -3.484375 -1.453125q-1.296875 -1.46875 -1.296875 -4.0q0 -2.53125 1.296875 -4.0q1.296875 -1.484375 3.484375 -1.484375q2.1875 0 3.484375 1.484375q1.296875 1.46875 1.296875 4.0zm-1.796875 0q0 -2.015625 -0.796875 -2.984375q-0.78125 -0.984375 -2.1875 -0.984375q-1.421875 0 -2.203125 0.984375q-0.78125 0.96875 -0.78125 2.984375q0 1.9375 0.78125 2.953125q0.796875 1.0 2.203125 1.0q1.390625 0 2.1875 -0.984375q0.796875 -1.0 0.796875 -2.96875z" fill-rule="nonzero"></path><path fill="#f3f3f3" d="m207.36783 307.09848l-9.09375 0l0 -13.8125l9.09375 0l0 1.625l-7.265625 0l0 3.796875l7.265625 0l0 1.625l-7.265625 0l0 5.125l7.265625 0l0 1.640625zm11.531174 0l-2.203125 0l-2.9375 -3.984375l-2.953125 3.984375l-2.03125 0l4.046875 -5.171875l-4.015625 -5.1875l2.203125 0l2.921875 3.90625l2.921875 -3.90625l2.046875 0l-4.078125 5.09375l4.078125 5.265625zm7.4469604 -0.09375q-0.484375 0.125 -1.0625 0.203125q-0.578125 0.09375 -1.046875 0.09375q-1.578125 0 -2.40625 -0.84375q-0.828125 -0.859375 -0.828125 -2.75l0 -5.5l-1.171875 0l0 -1.46875l1.171875 0l0 -2.984375l1.75 0l0 2.984375l3.59375 0l0 1.46875l-3.59375 0l0 4.71875q0 0.8125 0.03125 1.28125q0.046875 0.453125 0.265625 0.84375q0.203125 0.375 0.5625 0.546875q0.359375 0.171875 1.09375 0.171875q0.421875 0 0.875 -0.125q0.46875 -0.125 0.671875 -0.203125l0.09375 0l0 1.5625zm8.445114 -8.375l-0.09375 0q-0.390625 -0.078125 -0.765625 -0.125q-0.359375 -0.046875 -0.859375 -0.046875q-0.8125 0 -1.5625 0.359375q-0.75 0.359375 -1.453125 0.921875l0 7.359375l-1.734375 0l0 -10.359375l1.734375 0l0 1.53125q1.046875 -0.84375 1.84375 -1.1875q0.796875 -0.34375 1.609375 -0.34375q0.453125 0 0.65625 0.03125q0.21875 0.015625 0.625 0.078125l0 1.78125zm9.539825 8.46875l-1.734375 0l0 -1.109375q-0.234375 0.15625 -0.625 0.453125q-0.390625 0.28125 -0.765625 0.4375q-0.4375 0.21875 -1.0 0.359375q-0.5625 0.140625 -1.328125 0.140625q-1.40625 0 -2.375 -0.921875q-0.96875 -0.921875 -0.96875 -2.359375q0 -1.1875 0.5 -1.90625q0.5 -0.734375 1.4375 -1.15625q0.953125 -0.40625 2.28125 -0.546875q1.328125 -0.15625 2.84375 -0.234375l0 -0.265625q0 -0.59375 -0.21875 -0.984375q-0.203125 -0.390625 -0.578125 -0.625q-0.375 -0.203125 -0.90625 -0.28125q-0.515625 -0.078125 -1.078125 -0.078125q-0.6875 0 -1.53125 0.1875q-0.84375 0.171875 -1.75 0.515625l-0.078125 0l0 -1.765625q0.5 -0.140625 1.46875 -0.296875q0.96875 -0.171875 1.90625 -0.171875q1.09375 0 1.90625 0.1875q0.8125 0.171875 1.40625 0.609375q0.578125 0.421875 0.875 1.109375q0.3125 0.671875 0.3125 1.671875l0 7.03125zm-1.734375 -2.546875l0 -2.890625q-0.796875 0.046875 -1.875 0.140625q-1.078125 0.09375 -1.71875 0.265625q-0.75 0.21875 -1.21875 0.671875q-0.453125 0.4375 -0.453125 1.234375q0 0.890625 0.53125 1.34375q0.546875 0.4375 1.640625 0.4375q0.921875 0 1.6875 -0.34375q0.765625 -0.359375 1.40625 -0.859375zm12.548431 1.890625q-0.875 0.421875 -1.65625 0.65625q-0.78125 0.234375 -1.65625 0.234375q-1.125 0 -2.0625 -0.328125q-0.9375 -0.328125 -1.609375 -1.0q-0.671875 -0.671875 -1.046875 -1.6875q-0.375 -1.015625 -0.375 -2.390625q0 -2.53125 1.390625 -3.984375q1.40625 -1.453125 3.703125 -1.453125q0.890625 0 1.75 0.25q0.859375 0.25 1.5625 0.625l0 1.9375l-0.09375 0q-0.796875 -0.625 -1.640625 -0.953125q-0.84375 -0.34375 -1.65625 -0.34375q-1.484375 0 -2.34375 1.0q-0.859375 1.0 -0.859375 2.921875q0 1.875 0.84375 2.890625q0.84375 1.0 2.359375 1.0q0.53125 0 1.078125 -0.140625q0.546875 -0.140625 0.984375 -0.359375q0.375 -0.1875 0.703125 -0.40625q0.34375 -0.21875 0.53125 -0.375l0.09375 0l0 1.90625zm7.438568 0.5625q-0.484375 0.125 -1.0625 0.203125q-0.578125 0.09375 -1.046875 0.09375q-1.578125 0 -2.40625 -0.84375q-0.828125 -0.859375 -0.828125 -2.75l0 -5.5l-1.171875 0l0 -1.46875l1.171875 0l0 -2.984375l1.75 0l0 2.984375l3.59375 0l0 1.46875l-3.59375 0l0 4.71875q0 0.8125 0.03125 1.28125q0.046875 0.453125 0.265625 0.84375q0.203125 0.375 0.5625 0.546875q0.359375 0.171875 1.09375 0.171875q0.421875 0 0.875 -0.125q0.46875 -0.125 0.671875 -0.203125l0.09375 0l0 1.5625z" fill-rule="nonzero"></path><path fill="#f3f3f3" d="m209.1647 329.09848l-1.953125 0l-1.359375 -3.84375l-5.984375 0l-1.34375 3.84375l-1.875 0l5.03125 -13.8125l2.453125 0l5.03125 13.8125zm-3.875 -5.421875l-2.421875 -6.78125l-2.4375 6.78125l4.859375 0zm12.065796 -3.046875l-0.09375 0q-0.390625 -0.078125 -0.765625 -0.125q-0.359375 -0.046875 -0.859375 -0.046875q-0.8125 0 -1.5625 0.359375q-0.75 0.359375 -1.453125 0.921875l0 7.359375l-1.734375 0l0 -10.359375l1.734375 0l0 1.53125q1.046875 -0.84375 1.84375 -1.1875q0.796875 -0.34375 1.609375 -0.34375q0.453125 0 0.65625 0.03125q0.21875 0.015625 0.625 0.078125l0 1.78125zm9.1492 7.8125q-0.875 0.421875 -1.65625 0.65625q-0.78125 0.234375 -1.65625 0.234375q-1.125 0 -2.0625 -0.328125q-0.9375 -0.328125 -1.609375 -1.0q-0.671875 -0.671875 -1.046875 -1.6875q-0.375 -1.015625 -0.375 -2.390625q0 -2.53125 1.390625 -3.984375q1.40625 -1.453125 3.703125 -1.453125q0.890625 0 1.75 0.25q0.859375 0.25 1.5625 0.625l0 1.9375l-0.09375 0q-0.796875 -0.625 -1.640625 -0.953125q-0.84375 -0.34375 -1.65625 -0.34375q-1.484375 0 -2.34375 1.0q-0.859375 1.0 -0.859375 2.921875q0 1.875 0.84375 2.890625q0.84375 1.0 2.359375 1.0q0.53125 0 1.078125 -0.140625q0.546875 -0.140625 0.984375 -0.359375q0.375 -0.1875 0.703125 -0.40625q0.34375 -0.21875 0.53125 -0.375l0.09375 0l0 1.90625zm10.719833 0.65625l-1.734375 0l0 -5.90625q0 -0.703125 -0.09375 -1.328125q-0.078125 -0.640625 -0.296875 -0.984375q-0.234375 -0.390625 -0.671875 -0.578125q-0.4375 -0.1875 -1.125 -0.1875q-0.71875 0 -1.5 0.359375q-0.78125 0.34375 -1.5 0.890625l0 7.734375l-1.734375 0l0 -14.4375l1.734375 0l0 5.21875q0.828125 -0.671875 1.6875 -1.046875q0.875 -0.390625 1.796875 -0.390625q1.6875 0 2.5625 1.015625q0.875 1.015625 0.875 2.921875l0 6.71875zm5.024658 -12.09375l-1.96875 0l0 -1.8125l1.96875 0l0 1.8125zm-0.109375 12.09375l-1.75 0l0 -10.359375l1.75 0l0 10.359375zm12.307037 -10.359375l-4.1875 10.359375l-1.75 0l-4.171875 -10.359375l1.890625 0l3.21875 8.25l3.171875 -8.25l1.828125 0zm10.759445 5.359375l-7.640625 0q0 0.953125 0.28125 1.671875q0.296875 0.703125 0.796875 1.15625q0.484375 0.453125 1.140625 0.671875q0.671875 0.21875 1.46875 0.21875q1.0625 0 2.125 -0.421875q1.078125 -0.421875 1.53125 -0.828125l0.09375 0l0 1.90625q-0.875 0.359375 -1.796875 0.609375q-0.921875 0.25 -1.9375 0.25q-2.578125 0 -4.03125 -1.390625q-1.4374847 -1.390625 -1.4374847 -3.96875q0 -2.53125 1.3749847 -4.03125q1.390625 -1.5 3.65625 -1.5q2.109375 0 3.234375 1.234375q1.140625 1.21875 1.140625 3.46875l0 0.953125zm-1.703125 -1.34375q0 -1.359375 -0.6875 -2.109375q-0.6875 -0.765625 -2.078125 -0.765625q-1.390625 0 -2.234375 0.828125q-0.828125 0.828125 -0.9375 2.046875l5.9375 0z" fill-rule="nonzero"></path><path fill="#8e7cc3" d="m339.88715 264.8399l149.32281 0l0 -35.338593l70.677185 70.677155l-70.677185 70.677185l0 -35.338593l-149.32281 0z" fill-rule="nonzero"></path><path stroke="#8e7cc3" stroke-width="1.0" stroke-linejoin="round" stroke-linecap="butt" d="m339.88715 264.8399l149.32281 0l0 -35.338593l70.677185 70.677155l-70.677185 70.677185l0 -35.338593l-149.32281 0z" fill-rule="nonzero"></path><path fill="#f3f3f3" d="m359.4809 296.09848l-8.734375 0l0 -13.8125l1.828125 0l0 12.171875l6.90625 0l0 1.640625zm10.337952 -5.171875q0 2.53125 -1.296875 4.0q-1.296875 1.453125 -3.484375 1.453125q-2.1875 0 -3.484375 -1.453125q-1.296875 -1.46875 -1.296875 -4.0q0 -2.53125 1.296875 -4.0q1.296875 -1.484375 3.484375 -1.484375q2.1875 0 3.484375 1.484375q1.296875 1.46875 1.296875 4.0zm-1.796875 0q0 -2.015625 -0.796875 -2.984375q-0.78125 -0.984375 -2.1875 -0.984375q-1.421875 0 -2.203125 0.984375q-0.78125 0.96875 -0.78125 2.984375q0 1.9375 0.78125 2.953125q0.796875 1.0 2.203125 1.0q1.390625 0 2.1875 -0.984375q0.796875 -1.0 0.796875 -2.96875zm12.338715 5.171875l-1.734375 0l0 -1.109375q-0.234375 0.15625 -0.625 0.453125q-0.390625 0.28125 -0.765625 0.4375q-0.4375 0.21875 -1.0 0.359375q-0.5625 0.140625 -1.328125 0.140625q-1.40625 0 -2.375 -0.921875q-0.96875 -0.921875 -0.96875 -2.359375q0 -1.1875 0.5 -1.90625q0.5 -0.734375 1.4375 -1.15625q0.953125 -0.40625 2.28125 -0.546875q1.328125 -0.15625 2.84375 -0.234375l0 -0.265625q0 -0.59375 -0.21875 -0.984375q-0.203125 -0.390625 -0.578125 -0.625q-0.375 -0.203125 -0.90625 -0.28125q-0.515625 -0.078125 -1.078125 -0.078125q-0.6875 0 -1.53125 0.1875q-0.84375 0.171875 -1.75 0.515625l-0.078125 0l0 -1.765625q0.5 -0.140625 1.46875 -0.296875q0.96875 -0.171875 1.90625 -0.171875q1.09375 0 1.90625 0.1875q0.8125 0.171875 1.40625 0.609375q0.578125 0.421875 0.875 1.109375q0.3125 0.671875 0.3125 1.671875l0 7.03125zm-1.734375 -2.546875l0 -2.890625q-0.796875 0.046875 -1.875 0.140625q-1.078125 0.09375 -1.71875 0.265625q-0.75 0.21875 -1.21875 0.671875q-0.453125 0.4375 -0.453125 1.234375q0 0.890625 0.53125 1.34375q0.546875 0.4375 1.640625 0.4375q0.921875 0 1.6875 -0.34375q0.765625 -0.359375 1.40625 -0.859375zm13.298431 2.546875l-1.75 0l0 -1.078125q-0.75 0.640625 -1.5625 1.0q-0.8125 0.359375 -1.78125 0.359375q-1.84375 0 -2.9375 -1.421875q-1.09375 -1.421875 -1.09375 -3.96875q0 -1.3125 0.375 -2.34375q0.375 -1.03125 1.015625 -1.75q0.640625 -0.703125 1.46875 -1.078125q0.84375 -0.375 1.75 -0.375q0.8125 0 1.4375 0.171875q0.640625 0.171875 1.328125 0.53125l0 -4.484375l1.75 0l0 14.4375zm-1.75 -2.546875l0 -5.953125q-0.703125 -0.3125 -1.265625 -0.4375q-0.546875 -0.125 -1.203125 -0.125q-1.46875 0 -2.296875 1.03125q-0.8125 1.015625 -0.8125 2.890625q0 1.84375 0.625 2.8125q0.640625 0.953125 2.03125 0.953125q0.75 0 1.5 -0.328125q0.765625 -0.328125 1.421875 -0.84375zm22.557556 2.546875l-1.953125 0l-1.359375 -3.84375l-5.984375 0l-1.34375 3.84375l-1.875 0l5.03125 -13.8125l2.453125 0l5.03125 13.8125zm-3.875 -5.421875l-2.421875 -6.78125l-2.4375 6.78125l4.859375 0zm12.065796 -3.046875l-0.09375 0q-0.390625 -0.078125 -0.765625 -0.125q-0.359375 -0.046875 -0.859375 -0.046875q-0.8125 0 -1.5625 0.359375q-0.75 0.359375 -1.453125 0.921875l0 7.359375l-1.734375 0l0 -10.359375l1.734375 0l0 1.53125q1.046875 -0.84375 1.84375 -1.1875q0.796875 -0.34375 1.609375 -0.34375q0.453125 0 0.65625 0.03125q0.21875 0.015625 0.625 0.078125l0 1.78125zm9.1492 7.8125q-0.875 0.421875 -1.65625 0.65625q-0.78125 0.234375 -1.65625 0.234375q-1.125 0 -2.0625 -0.328125q-0.9375 -0.328125 -1.609375 -1.0q-0.671875 -0.671875 -1.046875 -1.6875q-0.375 -1.015625 -0.375 -2.390625q0 -2.53125 1.390625 -3.984375q1.40625 -1.453125 3.703125 -1.453125q0.890625 0 1.75 0.25q0.859375 0.25 1.5625 0.625l0 1.9375l-0.09375 0q-0.796875 -0.625 -1.640625 -0.953125q-0.84375 -0.34375 -1.65625 -0.34375q-1.484375 0 -2.34375 1.0q-0.859375 1.0 -0.859375 2.921875q0 1.875 0.84375 2.890625q0.84375 1.0 2.359375 1.0q0.53125 0 1.078125 -0.140625q0.546875 -0.140625 0.984375 -0.359375q0.375 -0.1875 0.703125 -0.40625q0.34375 -0.21875 0.53125 -0.375l0.09375 0l0 1.90625zm10.719849 0.65625l-1.734375 0l0 -5.90625q0 -0.703125 -0.09375 -1.328125q-0.078125 -0.640625 -0.296875 -0.984375q-0.234375 -0.390625 -0.671875 -0.578125q-0.4375 -0.1875 -1.125 -0.1875q-0.71875 0 -1.5 0.359375q-0.78125 0.34375 -1.5 0.890625l0 7.734375l-1.734375 0l0 -14.4375l1.734375 0l0 5.21875q0.828125 -0.671875 1.6875 -1.046875q0.875 -0.390625 1.796875 -0.390625q1.6875 0 2.5625 1.015625q0.875 1.015625 0.875 2.921875l0 6.71875zm5.024658 -12.09375l-1.96875 0l0 -1.8125l1.96875 0l0 1.8125zm-0.109375 12.09375l-1.75 0l0 -10.359375l1.75 0l0 10.359375zm12.307037 -10.359375l-4.1875 10.359375l-1.75 0l-4.171875 -10.359375l1.890625 0l3.21875 8.25l3.171875 -8.25l1.828125 0zm10.75946 5.359375l-7.640625 0q0 0.953125 0.28125 1.671875q0.296875 0.703125 0.796875 1.15625q0.484375 0.453125 1.140625 0.671875q0.671875 0.21875 1.46875 0.21875q1.0625 0 2.125 -0.421875q1.078125 -0.421875 1.53125 -0.828125l0.09375 0l0 1.90625q-0.875 0.359375 -1.796875 0.609375q-0.921875 0.25 -1.9375 0.25q-2.578125 0 -4.03125 -1.390625q-1.4375 -1.390625 -1.4375 -3.96875q0 -2.53125 1.375 -4.03125q1.390625 -1.5 3.65625 -1.5q2.109375 0 3.234375 1.234375q1.140625 1.21875 1.140625 3.46875l0 0.953125zm-1.703125 -1.34375q0 -1.359375 -0.6875 -2.109375q-0.6875 -0.765625 -2.078125 -0.765625q-1.390625 0 -2.234375 0.828125q-0.828125 0.828125 -0.9375 2.046875l5.9375 0zm15.703674 6.34375l-5.453125 0l0 -1.40625l1.8125 0l0 -11.0l-1.8125 0l0 -1.40625l5.453125 0l0 1.40625l-1.796875 0l0 11.0l1.796875 0l0 1.40625zm11.508636 0l-1.734375 0l0 -5.90625q0 -0.703125 -0.09375 -1.328125q-0.078125 -0.640625 -0.296875 -0.984375q-0.234375 -0.390625 -0.671875 -0.578125q-0.4375 -0.1875 -1.125 -0.1875q-0.71875 0 -1.5 0.359375q-0.78125 0.34375 -1.5 0.890625l0 7.734375l-1.734375 0l0 -10.359375l1.734375 0l0 1.140625q0.828125 -0.671875 1.6875 -1.046875q0.875 -0.390625 1.796875 -0.390625q1.6875 0 2.5625 1.015625q0.875 1.015625 0.875 2.921875l0 6.71875zm8.524658 -0.09375q-0.484375 0.125 -1.0625 0.203125q-0.578125 0.09375 -1.046875 0.09375q-1.578125 0 -2.40625 -0.84375q-0.828125 -0.859375 -0.828125 -2.75l0 -5.5l-1.171875 0l0 -1.46875l1.171875 0l0 -2.984375l1.75 0l0 2.984375l3.59375 0l0 1.46875l-3.59375 0l0 4.71875q0 0.8125 0.03125 1.28125q0.046875 0.453125 0.265625 0.84375q0.203125 0.375 0.5625 0.546875q0.359375 0.171875 1.09375 0.171875q0.421875 0 0.875 -0.125q0.46875 -0.125 0.671875 -0.203125l0.09375 0l0 1.5625zm10.804474 -5.078125q0 2.53125 -1.296875 4.0q-1.296875 1.453125 -3.484375 1.453125q-2.1875 0 -3.484375 -1.453125q-1.296875 -1.46875 -1.296875 -4.0q0 -2.53125 1.296875 -4.0q1.296875 -1.484375 3.484375 -1.484375q2.1875 0 3.484375 1.484375q1.296875 1.46875 1.296875 4.0zm-1.796875 0q0 -2.015625 -0.796875 -2.984375q-0.78125 -0.984375 -2.1875 -0.984375q-1.421875 0 -2.203125 0.984375q-0.78125 0.96875 -0.78125 2.984375q0 1.9375 0.78125 2.953125q0.796875 1.0 2.203125 1.0q1.390625 0 2.1875 -0.984375q0.796875 -1.0 0.796875 -2.96875z" fill-rule="nonzero"></path><path fill="#f3f3f3" d="m361.63715 318.09848l-1.953125 0l-1.359375 -3.84375l-5.984375 0l-1.34375 3.84375l-1.875 0l5.03125 -13.8125l2.453125 0l5.03125 13.8125zm-3.875 -5.421875l-2.421875 -6.78125l-2.4375 6.78125l4.859375 0zm14.722046 0.109375q0 1.265625 -0.375 2.3125q-0.359375 1.046875 -1.015625 1.765625q-0.609375 0.6875 -1.4375 1.0625q-0.828125 0.375 -1.765625 0.375q-0.796875 0 -1.453125 -0.1875q-0.65625 -0.171875 -1.34375 -0.53125l0 4.34375l-1.734375 0l0 -14.1875l1.734375 0l0 1.078125q0.703125 -0.578125 1.5625 -0.96875q0.875 -0.40625 1.859375 -0.40625q1.875 0 2.921875 1.421875q1.046875 1.40625 1.046875 3.921875zm-1.8125 0.046875q0 -1.875 -0.640625 -2.796875q-0.640625 -0.921875 -1.96875 -0.921875q-0.75 0 -1.515625 0.328125q-0.75 0.3125 -1.453125 0.84375l0 5.875q0.75 0.328125 1.28125 0.453125q0.53125 0.125 1.21875 0.125q1.453125 0 2.265625 -0.984375q0.8125 -0.984375 0.8125 -2.921875zm13.436218 -0.046875q0 1.265625 -0.375 2.3125q-0.359375 1.046875 -1.015625 1.765625q-0.609375 0.6875 -1.4375 1.0625q-0.828125 0.375 -1.765625 0.375q-0.796875 0 -1.453125 -0.1875q-0.65625 -0.171875 -1.34375 -0.53125l0 4.34375l-1.734375 0l0 -14.1875l1.734375 0l0 1.078125q0.703125 -0.578125 1.5625 -0.96875q0.875 -0.40625 1.859375 -0.40625q1.875 0 2.921875 1.421875q1.046875 1.40625 1.046875 3.921875zm-1.8125 0.046875q0 -1.875 -0.640625 -2.796875q-0.640625 -0.921875 -1.96875 -0.921875q-0.75 0 -1.515625 0.328125q-0.75 0.3125 -1.453125 0.84375l0 5.875q0.75 0.328125 1.28125 0.453125q0.53125 0.125 1.21875 0.125q1.453125 0 2.265625 -0.984375q0.8125 -0.984375 0.8125 -2.921875zm6.0768433 5.265625l-1.75 0l0 -14.4375l1.75 0l0 14.4375zm5.2289124 -12.09375l-1.96875 0l0 -1.8125l1.96875 0l0 1.8125zm-0.109375 12.09375l-1.75 0l0 -10.359375l1.75 0l0 10.359375zm11.010162 -0.65625q-0.875 0.421875 -1.65625 0.65625q-0.78125 0.234375 -1.65625 0.234375q-1.125 0 -2.0625 -0.328125q-0.9375 -0.328125 -1.609375 -1.0q-0.671875 -0.671875 -1.046875 -1.6875q-0.375 -1.015625 -0.375 -2.390625q0 -2.53125 1.390625 -3.984375q1.40625 -1.453125 3.703125 -1.453125q0.890625 0 1.75 0.25q0.859375 0.25 1.5625 0.625l0 1.9375l-0.09375 0q-0.796875 -0.625 -1.640625 -0.953125q-0.84375 -0.34375 -1.65625 -0.34375q-1.484375 0 -2.34375 1.0q-0.859375 1.0 -0.859375 2.921875q0 1.875 0.84375 2.890625q0.84375 1.0 2.359375 1.0q0.53125 0 1.078125 -0.140625q0.546875 -0.140625 0.984375 -0.359375q0.375 -0.1875 0.703125 -0.40625q0.34375 -0.21875 0.53125 -0.375l0.09375 0l0 1.90625zm10.110443 0.65625l-1.734375 0l0 -1.109375q-0.234375 0.15625 -0.625 0.453125q-0.390625 0.28125 -0.765625 0.4375q-0.4375 0.21875 -1.0 0.359375q-0.5625 0.140625 -1.328125 0.140625q-1.40625 0 -2.375 -0.921875q-0.96875 -0.921875 -0.96875 -2.359375q0 -1.1875 0.5 -1.90625q0.5 -0.734375 1.4375 -1.15625q0.953125 -0.40625 2.28125 -0.546875q1.328125 -0.15625 2.84375 -0.234375l0 -0.265625q0 -0.59375 -0.21875 -0.984375q-0.203125 -0.390625 -0.578125 -0.625q-0.375 -0.203125 -0.90625 -0.28125q-0.515625 -0.078125 -1.078125 -0.078125q-0.6875 0 -1.53125 0.1875q-0.84375 0.171875 -1.75 0.515625l-0.078125 0l0 -1.765625q0.5 -0.140625 1.46875 -0.296875q0.96875 -0.171875 1.90625 -0.171875q1.09375 0 1.90625 0.1875q0.8125 0.171875 1.40625 0.609375q0.578125 0.421875 0.875 1.109375q0.3125 0.671875 0.3125 1.671875l0 7.03125zm-1.734375 -2.546875l0 -2.890625q-0.796875 0.046875 -1.875 0.140625q-1.078125 0.09375 -1.71875 0.265625q-0.75 0.21875 -1.21875 0.671875q-0.453125 0.4375 -0.453125 1.234375q0 0.890625 0.53125 1.34375q0.546875 0.4375 1.640625 0.4375q0.921875 0 1.6875 -0.34375q0.765625 -0.359375 1.40625 -0.859375zm10.267181 2.453125q-0.484375 0.125 -1.0625 0.203125q-0.578125 0.09375 -1.046875 0.09375q-1.578125 0 -2.40625 -0.84375q-0.828125 -0.859375 -0.828125 -2.75l0 -5.5l-1.171875 0l0 -1.46875l1.171875 0l0 -2.984375l1.75 0l0 2.984375l3.59375 0l0 1.46875l-3.59375 0l0 4.71875q0 0.8125 0.03125 1.28125q0.046875 0.453125 0.265625 0.84375q0.203125 0.375 0.5625 0.546875q0.359375 0.171875 1.09375 0.171875q0.421875 0 0.875 -0.125q0.46875 -0.125 0.671875 -0.203125l0.09375 0l0 1.5625zm3.8513794 -12.0l-1.96875 0l0 -1.8125l1.96875 0l0 1.8125zm-0.109375 12.09375l-1.75 0l0 -10.359375l1.75 0l0 10.359375zm12.182037 -5.171875q0 2.53125 -1.296875 4.0q-1.296875 1.453125 -3.484375 1.453125q-2.1875 0 -3.484375 -1.453125q-1.296875 -1.46875 -1.296875 -4.0q0 -2.53125 1.296875 -4.0q1.296875 -1.484375 3.484375 -1.484375q2.1875 0 3.484375 1.484375q1.296875 1.46875 1.296875 4.0zm-1.796875 0q0 -2.015625 -0.796875 -2.984375q-0.78125 -0.984375 -2.1875 -0.984375q-1.421875 0 -2.203125 0.984375q-0.78125 0.96875 -0.78125 2.984375q0 1.9375 0.78125 2.953125q0.796875 1.0 2.203125 1.0q1.390625 0 2.1875 -0.984375q0.796875 -1.0 0.796875 -2.96875zm12.94809 5.171875l-1.734375 0l0 -5.90625q0 -0.703125 -0.09375 -1.328125q-0.078125 -0.640625 -0.296875 -0.984375q-0.234375 -0.390625 -0.671875 -0.578125q-0.4375 -0.1875 -1.125 -0.1875q-0.71875 0 -1.5 0.359375q-0.78125 0.34375 -1.5 0.890625l0 7.734375l-1.734375 0l0 -10.359375l1.734375 0l0 1.140625q0.828125 -0.671875 1.6875 -1.046875q0.875 -0.390625 1.796875 -0.390625q1.6875 0 2.5625 1.015625q0.875 1.015625 0.875 2.921875l0 6.71875z" fill-rule="nonzero"></path><path fill="#b4a7d6" d="m559.8714 231.09186l156.44092 0l0 138.17325l-156.44092 0z" fill-rule="nonzero"></path><path stroke="#b4a7d6" stroke-width="1.0" stroke-linejoin="round" stroke-linecap="butt" d="m559.8714 231.09186l156.44092 0l0 138.17325l-156.44092 0z" fill-rule="nonzero"></path><path fill="#f3f3f3" d="m577.9183 267.84848l-5.640625 0l0 4.796875l6.578125 0l0 1.453125l-8.296875 0l0 -13.515625l8.21875 0l0 1.46875l-6.5 0l0 4.34375l5.640625 0l0 1.453125zm7.9143066 -0.0625l2.671875 -3.71875l2.015625 0l-3.734375 4.953125l3.84375 5.078125l-1.984375 0l-2.78125 -3.828125l-2.765625 3.828125l-2.015625 0l3.84375 -5.078125l-3.734375 -4.953125l1.984375 0l2.65625 3.71875zm11.101807 -6.15625l0 2.4375l3.828125 0l0 1.3125l-3.828125 0l0 5.46875q0 0.578125 0.140625 0.96875q0.15625 0.375 0.421875 0.609375q0.265625 0.21875 0.59375 0.3125q0.34375 0.09375 0.71875 0.09375q0.28125 0 0.578125 -0.03125q0.296875 -0.046875 0.578125 -0.078125q0.28125 -0.046875 0.53125 -0.09375q0.25 -0.0625 0.40625 -0.09375l0.234375 1.203125q-0.203125 0.140625 -0.515625 0.234375q-0.296875 0.09375 -0.671875 0.15625q-0.359375 0.078125 -0.765625 0.109375q-0.390625 0.046875 -0.796875 0.046875q-0.671875 0 -1.25 -0.1875q-0.578125 -0.1875 -1.015625 -0.59375q-0.421875 -0.421875 -0.671875 -1.078125q-0.234375 -0.65625 -0.234375 -1.578125l0 -5.46875l-2.640625 0l0 -1.3125l2.640625 0l0 -2.4375l1.71875 0zm13.711243 2.25q0.25 0 0.5 0.015625q0.265625 0 0.5 0.046875q0.234375 0.03125 0.4375 0.078125q0.203125 0.046875 0.328125 0.09375l-0.234375 1.6875q-0.5 -0.125 -0.953125 -0.171875q-0.4375 -0.046875 -0.9375 -0.046875q-1.203125 0 -1.953125 0.546875q-0.75 0.546875 -1.09375 1.53125l0 6.4375l-1.734375 0l0 -10.03125l1.640625 0l0.078125 1.59375q0.609375 -0.828125 1.46875 -1.296875q0.859375 -0.484375 1.953125 -0.484375zm11.211182 10.21875q-0.09375 -0.1875 -0.15625 -0.484375q-0.0625 -0.296875 -0.09375 -0.609375q-0.25 0.265625 -0.578125 0.5q-0.3125 0.21875 -0.703125 0.40625q-0.375 0.171875 -0.8125 0.265625q-0.4375 0.109375 -0.9375 0.109375q-0.796875 0 -1.4375 -0.234375q-0.640625 -0.234375 -1.09375 -0.625q-0.453125 -0.390625 -0.703125 -0.9375q-0.234375 -0.546875 -0.234375 -1.171875q0 -0.828125 0.328125 -1.453125q0.328125 -0.625 0.921875 -1.03125q0.609375 -0.40625 1.453125 -0.609375q0.859375 -0.21875 1.90625 -0.21875l1.875 0l0 -0.78125q0 -0.453125 -0.171875 -0.8125q-0.171875 -0.359375 -0.484375 -0.609375q-0.296875 -0.265625 -0.734375 -0.40625q-0.4375 -0.140625 -0.984375 -0.140625q-0.515625 0 -0.921875 0.140625q-0.40625 0.125 -0.6875 0.34375q-0.265625 0.203125 -0.421875 0.5q-0.15625 0.28125 -0.15625 0.609375l-1.71875 0q0 -0.546875 0.265625 -1.078125q0.28125 -0.53125 0.796875 -0.953125q0.515625 -0.421875 1.25 -0.671875q0.75 -0.265625 1.6875 -0.265625q0.84375 0 1.578125 0.203125q0.734375 0.203125 1.265625 0.625q0.53125 0.421875 0.84375 1.0625q0.3125 0.625 0.3125 1.46875l0 4.671875q0 0.5 0.078125 1.0625q0.09375 0.5625 0.265625 0.96875l0 0.15625l-1.796875 0zm-3.03125 -1.3125q0.5 0 0.9375 -0.125q0.4375 -0.125 0.796875 -0.34375q0.359375 -0.21875 0.609375 -0.484375q0.265625 -0.28125 0.421875 -0.578125l0 -2.03125l-1.59375 0q-1.515625 0 -2.359375 0.453125q-0.828125 0.4375 -0.828125 1.390625q0 0.375 0.125 0.703125q0.140625 0.3125 0.390625 0.546875q0.25 0.21875 0.625 0.34375q0.375 0.125 0.875 0.125zm11.914307 0.109375q0.46875 0 0.90625 -0.140625q0.4375 -0.15625 0.78125 -0.421875q0.34375 -0.265625 0.546875 -0.625q0.21875 -0.359375 0.21875 -0.765625l1.625 0q0 0.65625 -0.34375 1.265625q-0.34375 0.609375 -0.90625 1.078125q-0.5625 0.453125 -1.296875 0.734375q-0.734375 0.265625 -1.53125 0.265625q-1.140625 0 -2.0 -0.40625q-0.84375 -0.40625 -1.421875 -1.09375q-0.5625 -0.703125 -0.859375 -1.609375q-0.28125 -0.90625 -0.28125 -1.90625l0 -0.390625q0 -0.984375 0.28125 -1.890625q0.296875 -0.921875 0.859375 -1.609375q0.578125 -0.6875 1.421875 -1.09375q0.859375 -0.40625 2.0 -0.40625q0.890625 0 1.640625 0.28125q0.75 0.28125 1.28125 0.765625q0.546875 0.484375 0.84375 1.15625q0.3125 0.671875 0.3125 1.421875l-1.625 0q0 -0.453125 -0.203125 -0.84375q-0.1875 -0.40625 -0.515625 -0.71875q-0.3125 -0.3125 -0.765625 -0.484375q-0.453125 -0.171875 -0.96875 -0.171875q-0.796875 0 -1.34375 0.328125q-0.53125 0.3125 -0.875 0.828125q-0.328125 0.515625 -0.484375 1.15625q-0.140625 0.640625 -0.140625 1.28125l0 0.390625q0 0.65625 0.140625 1.3125q0.15625 0.640625 0.484375 1.15625q0.328125 0.515625 0.859375 0.84375q0.546875 0.3125 1.359375 0.3125zm10.976807 -11.265625l0 2.4375l3.828125 0l0 1.3125l-3.828125 0l0 5.46875q0 0.578125 0.140625 0.96875q0.15625 0.375 0.421875 0.609375q0.265625 0.21875 0.59375 0.3125q0.34375 0.09375 0.71875 0.09375q0.28125 0 0.578125 -0.03125q0.296875 -0.046875 0.578125 -0.078125q0.28125 -0.046875 0.53125 -0.09375q0.25 -0.0625 0.40625 -0.09375l0.234375 1.203125q-0.203125 0.140625 -0.515625 0.234375q-0.296875 0.09375 -0.671875 0.15625q-0.359375 0.078125 -0.765625 0.109375q-0.390625 0.046875 -0.796875 0.046875q-0.671875 0 -1.25 -0.1875q-0.578125 -0.1875 -1.015625 -0.59375q-0.421875 -0.421875 -0.671875 -1.078125q-0.234375 -0.65625 -0.234375 -1.578125l0 -5.46875l-2.640625 0l0 -1.3125l2.640625 0l0 -2.4375l1.71875 0z" fill-rule="nonzero"></path><path fill="#f3f3f3" d="m576.9339 292.59848l-4.515625 0l-1.078125 3.5l-1.71875 0l4.359375 -13.515625l1.4375 0l4.296875 13.515625l-1.71875 0l-1.0625 -3.5zm-4.046875 -1.484375l3.59375 0l-1.78125 -5.875l-1.8125 5.875zm15.367432 -5.234375q0.25 0 0.5 0.015625q0.265625 0 0.5 0.046875q0.234375 0.03125 0.4375 0.078125q0.203125 0.046875 0.328125 0.09375l-0.234375 1.6875q-0.5 -0.125 -0.953125 -0.171875q-0.4375 -0.046875 -0.9375 -0.046875q-1.203125 0 -1.953125 0.546875q-0.75 0.546875 -1.09375 1.53125l0 6.4375l-1.734375 0l0 -10.03125l1.640625 0l0.078125 1.59375q0.609375 -0.828125 1.46875 -1.296875q0.859375 -0.484375 1.953125 -0.484375zm8.898682 9.015625q0.46875 0 0.90625 -0.140625q0.4375 -0.15625 0.78125 -0.421875q0.34375 -0.265625 0.546875 -0.625q0.21875 -0.359375 0.21875 -0.765625l1.625 0q0 0.65625 -0.34375 1.265625q-0.34375 0.609375 -0.90625 1.078125q-0.5625 0.453125 -1.296875 0.734375q-0.734375 0.265625 -1.53125 0.265625q-1.140625 0 -2.0 -0.40625q-0.84375 -0.40625 -1.421875 -1.09375q-0.5625 -0.703125 -0.859375 -1.609375q-0.28125 -0.90625 -0.28125 -1.90625l0 -0.390625q0 -0.984375 0.28125 -1.890625q0.296875 -0.921875 0.859375 -1.609375q0.578125 -0.6875 1.421875 -1.09375q0.859375 -0.40625 2.0 -0.40625q0.890625 0 1.640625 0.28125q0.75 0.28125 1.28125 0.765625q0.546875 0.484375 0.84375 1.15625q0.3125 0.671875 0.3125 1.421875l-1.625 0q0 -0.453125 -0.203125 -0.84375q-0.1875 -0.40625 -0.515625 -0.71875q-0.3125 -0.3125 -0.765625 -0.484375q-0.453125 -0.171875 -0.96875 -0.171875q-0.796875 0 -1.34375 0.328125q-0.53125 0.3125 -0.875 0.828125q-0.328125 0.515625 -0.484375 1.15625q-0.140625 0.640625 -0.140625 1.28125l0 0.390625q0 0.65625 0.140625 1.3125q0.15625 0.640625 0.484375 1.15625q0.328125 0.515625 0.859375 0.84375q0.546875 0.3125 1.359375 0.3125zm8.633118 -7.34375q0.546875 -0.78125 1.328125 -1.21875q0.796875 -0.453125 1.765625 -0.453125q0.796875 0 1.4375 0.234375q0.640625 0.21875 1.09375 0.703125q0.46875 0.484375 0.703125 1.21875q0.25 0.734375 0.25 1.75l0 6.3125l-1.71875 0l0 -6.34375q0 -1.234375 -0.59375 -1.828125q-0.578125 -0.609375 -1.671875 -0.59375q-0.828125 0 -1.5 0.40625q-0.671875 0.40625 -1.09375 1.0625l0 7.296875l-1.71875 0l0 -14.25l1.71875 0l0 5.703125zm9.758057 -1.484375l5.125 0l0 8.546875l3.265625 0l0 1.484375l-8.390625 0l0 -1.484375l3.40625 0l0 -7.0625l-3.40625 0l0 -1.484375zm3.1875 -2.640625q0 -0.421875 0.25 -0.71875q0.25 -0.296875 0.78125 -0.296875q0.5 0 0.765625 0.296875q0.265625 0.296875 0.265625 0.71875q0 0.421875 -0.265625 0.703125q-0.265625 0.265625 -0.765625 0.265625q-0.53125 0 -0.78125 -0.265625q-0.25 -0.28125 -0.25 -0.703125zm11.664307 10.203125l0.15625 0.625l0.171875 -0.625l2.8125 -7.5625l1.75 0l-4.09375 10.03125l-1.3125 0l-4.125 -10.03125l1.765625 0l2.875 7.5625zm11.695557 2.65625q-1.0625 0 -1.953125 -0.359375q-0.875 -0.359375 -1.515625 -1.015625q-0.625 -0.65625 -0.984375 -1.546875q-0.34375 -0.890625 -0.34375 -1.9375l0 -0.390625q0 -1.203125 0.390625 -2.15625q0.390625 -0.96875 1.03125 -1.625q0.65625 -0.671875 1.46875 -1.015625q0.828125 -0.359375 1.6875 -0.359375q1.078125 0 1.890625 0.375q0.8125 0.375 1.34375 1.046875q0.546875 0.65625 0.8125 1.5625q0.265625 0.890625 0.265625 1.9375l0 0.765625l-7.171875 0q0.03125 0.6875 0.265625 1.296875q0.234375 0.59375 0.640625 1.046875q0.421875 0.453125 1.0 0.71875q0.578125 0.25 1.265625 0.25q0.921875 0 1.625 -0.359375q0.71875 -0.375 1.203125 -0.984375l1.046875 0.8125q-0.25 0.375 -0.625 0.734375q-0.375 0.34375 -0.875 0.609375q-0.484375 0.265625 -1.109375 0.421875q-0.625 0.171875 -1.359375 0.171875zm-0.21875 -9.0q-0.515625 0 -0.984375 0.1875q-0.46875 0.1875 -0.84375 0.5625q-0.359375 0.359375 -0.625 0.890625q-0.25 0.53125 -0.34375 1.234375l5.390625 0l0 -0.125q-0.03125 -0.5 -0.1875 -0.984375q-0.15625 -0.5 -0.484375 -0.890625q-0.3125 -0.390625 -0.796875 -0.625q-0.46875 -0.25 -1.125 -0.25zm6.6643677 3.703125q0 -1.109375 0.28125 -2.046875q0.28125 -0.953125 0.796875 -1.625q0.53125 -0.6875 1.265625 -1.0625q0.75 -0.375 1.671875 -0.375q0.890625 0 1.5625 0.296875q0.671875 0.296875 1.171875 0.875l0 -5.203125l1.71875 0l0 14.25l-1.578125 0l-0.078125 -1.0625q-0.5 0.609375 -1.203125 0.9375q-0.6875 0.3125 -1.625 0.3125q-0.90625 0 -1.640625 -0.390625q-0.734375 -0.390625 -1.265625 -1.078125q-0.515625 -0.6875 -0.796875 -1.609375q-0.28125 -0.9375 -0.28125 -2.015625l0 -0.203125zm1.703125 0.203125q0 0.734375 0.15625 1.390625q0.171875 0.65625 0.5 1.15625q0.328125 0.5 0.828125 0.796875q0.515625 0.296875 1.234375 0.296875q0.4375 0 0.78125 -0.09375q0.359375 -0.109375 0.640625 -0.296875q0.296875 -0.203125 0.515625 -0.46875q0.21875 -0.265625 0.390625 -0.578125l0 -4.65625q-0.34375 -0.625 -0.90625 -1.015625q-0.5625 -0.390625 -1.40625 -0.390625q-0.71875 0 -1.234375 0.296875q-0.515625 0.296875 -0.84375 0.8125q-0.328125 0.5 -0.5 1.171875q-0.15625 0.65625 -0.15625 1.375l0 0.203125z" fill-rule="nonzero"></path><path fill="#f3f3f3" d="m574.762 316.89536q0.46875 0 0.90625 -0.140625q0.4375 -0.15625 0.78125 -0.421875q0.34375 -0.265625 0.546875 -0.625q0.21875 -0.359375 0.21875 -0.765625l1.625 0q0 0.65625 -0.34375 1.265625q-0.34375 0.609375 -0.90625 1.078125q-0.5625 0.453125 -1.296875 0.734375q-0.734375 0.265625 -1.53125 0.265625q-1.140625 0 -2.0 -0.40625q-0.84375 -0.40625 -1.421875 -1.09375q-0.5625 -0.703125 -0.859375 -1.609375q-0.28125 -0.90625 -0.28125 -1.90625l0 -0.390625q0 -0.984375 0.28125 -1.890625q0.296875 -0.921875 0.859375 -1.609375q0.578125 -0.6875 1.421875 -1.09375q0.859375 -0.40625 2.0 -0.40625q0.890625 0 1.640625 0.28125q0.75 0.28125 1.28125 0.765625q0.546875 0.484375 0.84375 1.15625q0.3125 0.671875 0.3125 1.421875l-1.625 0q0 -0.453125 -0.203125 -0.84375q-0.1875 -0.40625 -0.515625 -0.71875q-0.3125 -0.3125 -0.765625 -0.484375q-0.453125 -0.171875 -0.96875 -0.171875q-0.796875 0 -1.34375 0.328125q-0.53125 0.3125 -0.875 0.828125q-0.328125 0.515625 -0.484375 1.15625q-0.140625 0.640625 -0.140625 1.28125l0 0.390625q0 0.65625 0.140625 1.3125q0.15625 0.640625 0.484375 1.15625q0.328125 0.515625 0.859375 0.84375q0.546875 0.3125 1.359375 0.3125zm6.4299316 -3.90625q0 -1.09375 0.3125 -2.015625q0.328125 -0.9375 0.90625 -1.625q0.59375 -0.6875 1.4375 -1.078125q0.84375 -0.390625 1.90625 -0.390625q1.0625 0 1.90625 0.390625q0.859375 0.390625 1.4375 1.078125q0.59375 0.6875 0.90625 1.625q0.328125 0.921875 0.328125 2.015625l0 0.203125q0 1.078125 -0.328125 2.015625q-0.3125 0.921875 -0.90625 1.609375q-0.578125 0.6875 -1.421875 1.078125q-0.84375 0.390625 -1.90625 0.390625q-1.0625 0 -1.921875 -0.390625q-0.84375 -0.390625 -1.4375 -1.078125q-0.578125 -0.6875 -0.90625 -1.609375q-0.3125 -0.9375 -0.3125 -2.015625l0 -0.203125zm1.71875 0.203125q0 0.734375 0.171875 1.40625q0.1875 0.671875 0.546875 1.1875q0.359375 0.515625 0.890625 0.8125q0.53125 0.296875 1.25 0.296875q0.703125 0 1.234375 -0.296875q0.546875 -0.296875 0.890625 -0.8125q0.359375 -0.515625 0.53125 -1.1875q0.1875 -0.671875 0.1875 -1.40625l0 -0.203125q0 -0.734375 -0.1875 -1.40625q-0.171875 -0.671875 -0.53125 -1.171875q-0.359375 -0.515625 -0.890625 -0.8125q-0.53125 -0.3125 -1.25 -0.3125q-0.71875 0 -1.25 0.3125q-0.515625 0.296875 -0.875 0.8125q-0.359375 0.5 -0.546875 1.171875q-0.171875 0.671875 -0.171875 1.40625l0 0.203125zm11.508057 -5.125l0.125 1.484375q0.546875 -0.78125 1.34375 -1.21875q0.796875 -0.453125 1.78125 -0.453125q0.78125 0 1.421875 0.21875q0.65625 0.21875 1.109375 0.703125q0.453125 0.46875 0.6875 1.203125q0.25 0.71875 0.25 1.71875l0 6.375l-1.703125 0l0 -6.34375q0 -0.65625 -0.15625 -1.125q-0.140625 -0.46875 -0.4375 -0.75q-0.296875 -0.28125 -0.71875 -0.40625q-0.421875 -0.140625 -0.96875 -0.140625q-0.859375 0 -1.515625 0.4375q-0.65625 0.421875 -1.046875 1.125l0 7.203125l-1.71875 0l0 -10.03125l1.546875 0zm13.711243 -2.4375l0 2.4375l3.828125 0l0 1.3125l-3.828125 0l0 5.46875q0 0.578125 0.140625 0.96875q0.15625 0.375 0.421875 0.609375q0.265625 0.21875 0.59375 0.3125q0.34375 0.09375 0.71875 0.09375q0.28125 0 0.578125 -0.03125q0.296875 -0.046875 0.578125 -0.078125q0.28125 -0.046875 0.53125 -0.09375q0.25 -0.0625 0.40625 -0.09375l0.234375 1.203125q-0.203125 0.140625 -0.515625 0.234375q-0.296875 0.09375 -0.671875 0.15625q-0.359375 0.078125 -0.765625 0.109375q-0.390625 0.046875 -0.796875 0.046875q-0.671875 0 -1.25 -0.1875q-0.578125 -0.1875 -1.015625 -0.59375q-0.421875 -0.421875 -0.671875 -1.078125q-0.234375 -0.65625 -0.234375 -1.578125l0 -5.46875l-2.640625 0l0 -1.3125l2.640625 0l0 -2.4375l1.71875 0zm11.570557 12.65625q-1.0625 0 -1.953125 -0.359375q-0.875 -0.359375 -1.515625 -1.015625q-0.625 -0.65625 -0.984375 -1.546875q-0.34375 -0.890625 -0.34375 -1.9375l0 -0.390625q0 -1.203125 0.390625 -2.15625q0.390625 -0.96875 1.03125 -1.625q0.65625 -0.671875 1.46875 -1.015625q0.828125 -0.359375 1.6875 -0.359375q1.078125 0 1.890625 0.375q0.8125 0.375 1.34375 1.046875q0.546875 0.65625 0.8125 1.5625q0.265625 0.890625 0.265625 1.9375l0 0.765625l-7.171875 0q0.03125 0.6875 0.265625 1.296875q0.234375 0.59375 0.640625 1.046875q0.421875 0.453125 1.0 0.71875q0.578125 0.25 1.265625 0.25q0.921875 0 1.625 -0.359375q0.71875 -0.375 1.203125 -0.984375l1.046875 0.8125q-0.25 0.375 -0.625 0.734375q-0.375 0.34375 -0.875 0.609375q-0.484375 0.265625 -1.109375 0.421875q-0.625 0.171875 -1.359375 0.171875zm-0.21875 -9.0q-0.515625 0 -0.984375 0.1875q-0.46875 0.1875 -0.84375 0.5625q-0.359375 0.359375 -0.625 0.890625q-0.25 0.53125 -0.34375 1.234375l5.390625 0l0 -0.125q-0.03125 -0.5 -0.1875 -0.984375q-0.15625 -0.5 -0.484375 -0.890625q-0.3125 -0.390625 -0.796875 -0.625q-0.46875 -0.25 -1.125 -0.25zm8.523682 -1.21875l0.125 1.484375q0.546875 -0.78125 1.34375 -1.21875q0.796875 -0.453125 1.78125 -0.453125q0.78125 0 1.421875 0.21875q0.65625 0.21875 1.109375 0.703125q0.453125 0.46875 0.6875 1.203125q0.25 0.71875 0.25 1.71875l0 6.375l-1.703125 0l0 -6.34375q0 -0.65625 -0.15625 -1.125q-0.140625 -0.46875 -0.4375 -0.75q-0.296875 -0.28125 -0.71875 -0.40625q-0.421875 -0.140625 -0.96875 -0.140625q-0.859375 0 -1.515625 0.4375q-0.65625 0.421875 -1.046875 1.125l0 7.203125l-1.71875 0l0 -10.03125l1.546875 0zm13.711182 -2.4375l0 2.4375l3.828125 0l0 1.3125l-3.828125 0l0 5.46875q0 0.578125 0.140625 0.96875q0.15625 0.375 0.421875 0.609375q0.265625 0.21875 0.59375 0.3125q0.34375 0.09375 0.71875 0.09375q0.28125 0 0.578125 -0.03125q0.296875 -0.046875 0.578125 -0.078125q0.28125 -0.046875 0.53125 -0.09375q0.25 -0.0625 0.40625 -0.09375l0.234375 1.203125q-0.203125 0.140625 -0.515625 0.234375q-0.296875 0.09375 -0.671875 0.15625q-0.359375 0.078125 -0.765625 0.109375q-0.390625 0.046875 -0.796875 0.046875q-0.671875 0 -1.25 -0.1875q-0.578125 -0.1875 -1.015625 -0.59375q-0.421875 -0.421875 -0.671875 -1.078125q-0.234375 -0.65625 -0.234375 -1.578125l0 -5.46875l-2.640625 0l0 -1.3125l2.640625 0l0 -2.4375l1.71875 0zm24.922424 12.46875q-0.09375 -0.1875 -0.15625 -0.484375q-0.0625 -0.296875 -0.09375 -0.609375q-0.25 0.265625 -0.578125 0.5q-0.3125 0.21875 -0.703125 0.40625q-0.375 0.171875 -0.8125 0.265625q-0.4375 0.109375 -0.9375 0.109375q-0.796875 0 -1.4375 -0.234375q-0.640625 -0.234375 -1.09375 -0.625q-0.453125 -0.390625 -0.703125 -0.9375q-0.234375 -0.546875 -0.234375 -1.171875q0 -0.828125 0.328125 -1.453125q0.328125 -0.625 0.921875 -1.03125q0.609375 -0.40625 1.453125 -0.609375q0.859375 -0.21875 1.90625 -0.21875l1.875 0l0 -0.78125q0 -0.453125 -0.171875 -0.8125q-0.171875 -0.359375 -0.484375 -0.609375q-0.296875 -0.265625 -0.734375 -0.40625q-0.4375 -0.140625 -0.984375 -0.140625q-0.515625 0 -0.921875 0.140625q-0.40625 0.125 -0.6875 0.34375q-0.265625 0.203125 -0.421875 0.5q-0.15625 0.28125 -0.15625 0.609375l-1.71875 0q0 -0.546875 0.265625 -1.078125q0.28125 -0.53125 0.796875 -0.953125q0.515625 -0.421875 1.25 -0.671875q0.75 -0.265625 1.6875 -0.265625q0.84375 0 1.578125 0.203125q0.734375 0.203125 1.265625 0.625q0.53125 0.421875 0.84375 1.0625q0.3125 0.625 0.3125 1.46875l0 4.671875q0 0.5 0.078125 1.0625q0.09375 0.5625 0.265625 0.96875l0 0.15625l-1.796875 0zm-3.03125 -1.3125q0.5 0 0.9375 -0.125q0.4375 -0.125 0.796875 -0.34375q0.359375 -0.21875 0.609375 -0.484375q0.265625 -0.28125 0.421875 -0.578125l0 -2.03125l-1.59375 0q-1.515625 0 -2.359375 0.453125q-0.828125 0.4375 -0.828125 1.390625q0 0.375 0.125 0.703125q0.140625 0.3125 0.390625 0.546875q0.25 0.21875 0.625 0.34375q0.375 0.125 0.875 0.125zm14.304932 -1.34375q0 -0.3125 -0.125 -0.546875q-0.109375 -0.25 -0.40625 -0.453125q-0.28125 -0.21875 -0.765625 -0.390625q-0.46875 -0.171875 -1.171875 -0.296875q-0.859375 -0.1875 -1.578125 -0.4375q-0.703125 -0.25 -1.203125 -0.59375q-0.5 -0.34375 -0.78125 -0.8125q-0.28125 -0.46875 -0.28125 -1.09375q0 -0.609375 0.28125 -1.140625q0.296875 -0.546875 0.8125 -0.9375q0.515625 -0.40625 1.234375 -0.625q0.71875 -0.234375 1.578125 -0.234375q0.9375 0 1.671875 0.25q0.75 0.234375 1.265625 0.65625q0.515625 0.421875 0.796875 1.0q0.296875 0.5625 0.296875 1.21875l-1.71875 0q0 -0.3125 -0.171875 -0.625q-0.171875 -0.3125 -0.46875 -0.546875q-0.296875 -0.25 -0.71875 -0.390625q-0.421875 -0.15625 -0.953125 -0.15625q-0.546875 0 -0.953125 0.125q-0.40625 0.109375 -0.6875 0.3125q-0.265625 0.203125 -0.40625 0.484375q-0.140625 0.265625 -0.140625 0.546875q0 0.296875 0.109375 0.53125q0.109375 0.234375 0.375 0.421875q0.28125 0.1875 0.734375 0.34375q0.46875 0.140625 1.171875 0.28125q0.921875 0.1875 1.65625 0.453125q0.734375 0.25 1.234375 0.609375q0.5 0.359375 0.765625 0.828125q0.265625 0.46875 0.265625 1.09375q0 0.671875 -0.3125 1.21875q-0.296875 0.546875 -0.828125 0.9375q-0.53125 0.390625 -1.296875 0.609375q-0.75 0.203125 -1.640625 0.203125q-1.015625 0 -1.8125 -0.265625q-0.796875 -0.28125 -1.359375 -0.734375q-0.546875 -0.453125 -0.84375 -1.046875q-0.28125 -0.59375 -0.28125 -1.234375l1.71875 0q0.03125 0.53125 0.28125 0.890625q0.25 0.359375 0.609375 0.59375q0.375 0.21875 0.8125 0.3125q0.453125 0.09375 0.875 0.09375q1.09375 0 1.71875 -0.390625q0.640625 -0.40625 0.640625 -1.0625z" fill-rule="nonzero"></path><path fill="#f3f3f3" d="m577.1839 336.44223l1.03125 -9.859375l1.625 0l-1.640625 13.515625l-1.75 0l-1.75 -10.171875l-1.75 10.171875l-1.765625 0l-1.640625 -13.515625l1.640625 0l1.03125 9.859375l1.734375 -9.859375l1.484375 0l1.75 9.859375zm8.929932 3.84375q-1.0625 0 -1.953125 -0.359375q-0.875 -0.359375 -1.515625 -1.015625q-0.625 -0.65625 -0.984375 -1.546875q-0.34375 -0.890625 -0.34375 -1.9375l0 -0.390625q0 -1.203125 0.390625 -2.15625q0.390625 -0.96875 1.03125 -1.625q0.65625 -0.671875 1.46875 -1.015625q0.828125 -0.359375 1.6875 -0.359375q1.078125 0 1.890625 0.375q0.8125 0.375 1.34375 1.046875q0.546875 0.65625 0.8125 1.5625q0.265625 0.890625 0.265625 1.9375l0 0.765625l-7.171875 0q0.03125 0.6875 0.265625 1.296875q0.234375 0.59375 0.640625 1.046875q0.421875 0.453125 1.0 0.71875q0.578125 0.25 1.265625 0.25q0.921875 0 1.625 -0.359375q0.71875 -0.375 1.203125 -0.984375l1.046875 0.8125q-0.25 0.375 -0.625 0.734375q-0.375 0.34375 -0.875 0.609375q-0.484375 0.265625 -1.109375 0.421875q-0.625 0.171875 -1.359375 0.171875zm-0.21875 -9.0q-0.515625 0 -0.984375 0.1875q-0.46875 0.1875 -0.84375 0.5625q-0.359375 0.359375 -0.625 0.890625q-0.25 0.53125 -0.34375 1.234375l5.390625 0l0 -0.125q-0.03125 -0.5 -0.1875 -0.984375q-0.15625 -0.5 -0.484375 -0.890625q-0.3125 -0.390625 -0.796875 -0.625q-0.46875 -0.25 -1.125 -0.25zm15.492432 3.90625q0 1.078125 -0.265625 2.015625q-0.25 0.921875 -0.765625 1.609375q-0.5 0.6875 -1.234375 1.078125q-0.734375 0.390625 -1.6875 0.390625q-0.96875 0 -1.6875 -0.34375q-0.703125 -0.34375 -1.203125 -0.984375l-0.078125 1.140625l-1.578125 0l0 -14.25l1.71875 0l0 5.28125q0.484375 -0.609375 1.171875 -0.921875q0.703125 -0.328125 1.640625 -0.328125q0.953125 0 1.6875 0.375q0.75 0.375 1.25 1.0625q0.515625 0.671875 0.765625 1.625q0.265625 0.9375 0.265625 2.046875l0 0.203125zm-1.71875 -0.203125q0 -0.71875 -0.140625 -1.375q-0.140625 -0.671875 -0.46875 -1.171875q-0.3125 -0.515625 -0.828125 -0.8125q-0.5 -0.296875 -1.25 -0.296875q-0.4375 0 -0.8125 0.125q-0.375 0.109375 -0.671875 0.3125q-0.28125 0.203125 -0.515625 0.5q-0.21875 0.28125 -0.375 0.609375l0 4.390625q0.15625 0.328125 0.390625 0.609375q0.234375 0.28125 0.53125 0.5q0.296875 0.21875 0.65625 0.34375q0.375 0.109375 0.828125 0.109375q0.703125 0 1.203125 -0.296875q0.5 -0.296875 0.8125 -0.796875q0.328125 -0.5 0.484375 -1.15625q0.15625 -0.65625 0.15625 -1.390625l0 -0.203125zm22.266174 2.453125q0 -0.3125 -0.125 -0.546875q-0.109375 -0.25 -0.40625 -0.453125q-0.28125 -0.21875 -0.765625 -0.390625q-0.46875 -0.171875 -1.171875 -0.296875q-0.859375 -0.1875 -1.578125 -0.4375q-0.703125 -0.25 -1.203125 -0.59375q-0.5 -0.34375 -0.78125 -0.8125q-0.28125 -0.46875 -0.28125 -1.09375q0 -0.609375 0.28125 -1.140625q0.296875 -0.546875 0.8125 -0.9375q0.515625 -0.40625 1.234375 -0.625q0.71875 -0.234375 1.578125 -0.234375q0.9375 0 1.671875 0.25q0.75 0.234375 1.265625 0.65625q0.515625 0.421875 0.796875 1.0q0.296875 0.5625 0.296875 1.21875l-1.71875 0q0 -0.3125 -0.171875 -0.625q-0.171875 -0.3125 -0.46875 -0.546875q-0.296875 -0.25 -0.71875 -0.390625q-0.421875 -0.15625 -0.953125 -0.15625q-0.546875 0 -0.953125 0.125q-0.40625 0.109375 -0.6875 0.3125q-0.265625 0.203125 -0.40625 0.484375q-0.140625 0.265625 -0.140625 0.546875q0 0.296875 0.109375 0.53125q0.109375 0.234375 0.375 0.421875q0.28125 0.1875 0.734375 0.34375q0.46875 0.140625 1.171875 0.28125q0.921875 0.1875 1.65625 0.453125q0.734375 0.25 1.234375 0.609375q0.5 0.359375 0.765625 0.828125q0.265625 0.46875 0.265625 1.09375q0 0.671875 -0.3125 1.21875q-0.296875 0.546875 -0.828125 0.9375q-0.53125 0.390625 -1.296875 0.609375q-0.75 0.203125 -1.640625 0.203125q-1.015625 0 -1.8125 -0.265625q-0.796875 -0.28125 -1.359375 -0.734375q-0.546875 -0.453125 -0.84375 -1.046875q-0.28125 -0.59375 -0.28125 -1.234375l1.71875 0q0.03125 0.53125 0.28125 0.890625q0.25 0.359375 0.609375 0.59375q0.375 0.21875 0.8125 0.3125q0.453125 0.09375 0.875 0.09375q1.09375 0 1.71875 -0.390625q0.640625 -0.40625 0.640625 -1.0625zm4.8049316 -7.375l5.125 0l0 8.546875l3.265625 0l0 1.484375l-8.390625 0l0 -1.484375l3.40625 0l0 -7.0625l-3.40625 0l0 -1.484375zm3.1875 -2.640625q0 -0.421875 0.25 -0.71875q0.25 -0.296875 0.78125 -0.296875q0.5 0 0.765625 0.296875q0.265625 0.296875 0.265625 0.71875q0 0.421875 -0.265625 0.703125q-0.265625 0.265625 -0.765625 0.265625q-0.53125 0 -0.78125 -0.265625q-0.25 -0.28125 -0.25 -0.703125zm11.789307 0.203125l0 2.4375l3.828125 0l0 1.3125l-3.828125 0l0 5.46875q0 0.578125 0.140625 0.96875q0.15625 0.375 0.421875 0.609375q0.265625 0.21875 0.59375 0.3125q0.34375 0.09375 0.71875 0.09375q0.28125 0 0.578125 -0.03125q0.296875 -0.046875 0.578125 -0.078125q0.28125 -0.046875 0.53125 -0.09375q0.25 -0.0625 0.40625 -0.09375l0.234375 1.203125q-0.203125 0.140625 -0.515625 0.234375q-0.296875 0.09375 -0.671875 0.15625q-0.359375 0.078125 -0.765625 0.109375q-0.390625 0.046875 -0.796875 0.046875q-0.671875 0 -1.25 -0.1875q-0.578125 -0.1875 -1.015625 -0.59375q-0.421875 -0.421875 -0.671875 -1.078125q-0.234375 -0.65625 -0.234375 -1.578125l0 -5.46875l-2.640625 0l0 -1.3125l2.640625 0l0 -2.4375l1.71875 0zm11.570618 12.65625q-1.0625 0 -1.953125 -0.359375q-0.875 -0.359375 -1.515625 -1.015625q-0.625 -0.65625 -0.984375 -1.546875q-0.34375 -0.890625 -0.34375 -1.9375l0 -0.390625q0 -1.203125 0.390625 -2.15625q0.390625 -0.96875 1.03125 -1.625q0.65625 -0.671875 1.46875 -1.015625q0.828125 -0.359375 1.6875 -0.359375q1.078125 0 1.890625 0.375q0.8125 0.375 1.34375 1.046875q0.546875 0.65625 0.8125 1.5625q0.265625 0.890625 0.265625 1.9375l0 0.765625l-7.171875 0q0.03125 0.6875 0.265625 1.296875q0.234375 0.59375 0.640625 1.046875q0.421875 0.453125 1.0 0.71875q0.578125 0.25 1.265625 0.25q0.921875 0 1.625 -0.359375q0.71875 -0.375 1.203125 -0.984375l1.046875 0.8125q-0.25 0.375 -0.625 0.734375q-0.375 0.34375 -0.875 0.609375q-0.484375 0.265625 -1.109375 0.421875q-0.625 0.171875 -1.359375 0.171875zm-0.21875 -9.0q-0.515625 0 -0.984375 0.1875q-0.46875 0.1875 -0.84375 0.5625q-0.359375 0.359375 -0.625 0.890625q-0.25 0.53125 -0.34375 1.234375l5.390625 0l0 -0.125q-0.03125 -0.5 -0.1875 -0.984375q-0.15625 -0.5 -0.484375 -0.890625q-0.3125 -0.390625 -0.796875 -0.625q-0.46875 -0.25 -1.125 -0.25z" fill-rule="nonzero"></path></g></svg>

